<svg width="22" height="27" viewBox="0 0 22 27" fill="none" xmlns="http://www.w3.org/2000/svg">
<path d="M17.7889 12.8907L11.3529 6.45946C11.3066 6.41303 11.2515 6.37619 11.191 6.35106C11.1304 6.32593 11.0654 6.31299 10.9998 6.31299C10.9342 6.31299 10.8692 6.32593 10.8087 6.35106C10.7481 6.37619 10.693 6.41303 10.6467 6.45946L4.21074 12.8907C4.02324 13.0782 3.91699 13.3329 3.91699 13.5985C3.91699 14.1501 4.36543 14.5985 4.91699 14.5985H5.59512V19.1876C5.59512 19.4641 5.81855 19.6876 6.09512 19.6876H9.9998V16.1876H11.7498V19.6876H15.9045C16.1811 19.6876 16.4045 19.4641 16.4045 19.1876V14.5985H17.0826C17.3482 14.5985 17.6029 14.4938 17.7904 14.3048C18.1795 13.9141 18.1795 13.2813 17.7889 12.8907Z" fill="#B9B9B9"/>
</svg>
