<svg width="50" height="19" viewBox="0 0 50 19" fill="none" xmlns="http://www.w3.org/2000/svg">
<path d="M0.108516 -9.53674e-07H2.70852V11.8H10.0285V14H0.108516V-9.53674e-07ZM16.5435 14.14C15.4635 14.14 14.4902 13.9067 13.6235 13.44C12.7568 12.9733 12.0768 12.3267 11.5835 11.5C11.1035 10.66 10.8635 9.71333 10.8635 8.66C10.8635 7.60667 11.1035 6.66667 11.5835 5.84C12.0768 5.01333 12.7568 4.36667 13.6235 3.9C14.4902 3.43333 15.4635 3.2 16.5435 3.2C17.6368 3.2 18.6168 3.43333 19.4835 3.9C20.3502 4.36667 21.0235 5.01333 21.5035 5.84C21.9969 6.66667 22.2435 7.60667 22.2435 8.66C22.2435 9.71333 21.9969 10.66 21.5035 11.5C21.0235 12.3267 20.3502 12.9733 19.4835 13.44C18.6168 13.9067 17.6368 14.14 16.5435 14.14ZM16.5435 12C17.4635 12 18.2235 11.6933 18.8235 11.08C19.4235 10.4667 19.7235 9.66 19.7235 8.66C19.7235 7.66 19.4235 6.85333 18.8235 6.24C18.2235 5.62667 17.4635 5.32 16.5435 5.32C15.6235 5.32 14.8635 5.62667 14.2635 6.24C13.6768 6.85333 13.3835 7.66 13.3835 8.66C13.3835 9.66 13.6768 10.4667 14.2635 11.08C14.8635 11.6933 15.6235 12 16.5435 12ZM35.2341 3.32V12.38C35.2341 16.14 33.3141 18.02 29.4741 18.02C28.4475 18.02 27.4741 17.8867 26.5541 17.62C25.6341 17.3667 24.8741 16.9933 24.2741 16.5L25.3941 14.62C25.8608 15.0067 26.4475 15.3133 27.1541 15.54C27.8741 15.78 28.6008 15.9 29.3341 15.9C30.5075 15.9 31.3675 15.6333 31.9141 15.1C32.4608 14.5667 32.7341 13.7533 32.7341 12.66V12.1C32.3075 12.5667 31.7875 12.92 31.1741 13.16C30.5608 13.4 29.8875 13.52 29.1541 13.52C28.1408 13.52 27.2208 13.3067 26.3941 12.88C25.5808 12.44 24.9341 11.8267 24.4541 11.04C23.9875 10.2533 23.7541 9.35333 23.7541 8.34C23.7541 7.32667 23.9875 6.43333 24.4541 5.66C24.9341 4.87333 25.5808 4.26667 26.3941 3.84C27.2208 3.41333 28.1408 3.2 29.1541 3.2C29.9275 3.2 30.6275 3.32667 31.2541 3.58C31.8941 3.83333 32.4275 4.22 32.8541 4.74V3.32H35.2341ZM29.5341 11.4C30.4808 11.4 31.2541 11.12 31.8541 10.56C32.4675 9.98667 32.7741 9.24667 32.7741 8.34C32.7741 7.44667 32.4675 6.72 31.8541 6.16C31.2541 5.6 30.4808 5.32 29.5341 5.32C28.5741 5.32 27.7875 5.6 27.1741 6.16C26.5741 6.72 26.2741 7.44667 26.2741 8.34C26.2741 9.24667 26.5741 9.98667 27.1741 10.56C27.7875 11.12 28.5741 11.4 29.5341 11.4ZM43.3209 14.14C42.2409 14.14 41.2675 13.9067 40.4009 13.44C39.5342 12.9733 38.8542 12.3267 38.3609 11.5C37.8809 10.66 37.6409 9.71333 37.6409 8.66C37.6409 7.60667 37.8809 6.66667 38.3609 5.84C38.8542 5.01333 39.5342 4.36667 40.4009 3.9C41.2675 3.43333 42.2409 3.2 43.3209 3.2C44.4142 3.2 45.3942 3.43333 46.2609 3.9C47.1275 4.36667 47.8009 5.01333 48.2809 5.84C48.7742 6.66667 49.0209 7.60667 49.0209 8.66C49.0209 9.71333 48.7742 10.66 48.2809 11.5C47.8009 12.3267 47.1275 12.9733 46.2609 13.44C45.3942 13.9067 44.4142 14.14 43.3209 14.14ZM43.3209 12C44.2409 12 45.0009 11.6933 45.6009 11.08C46.2009 10.4667 46.5009 9.66 46.5009 8.66C46.5009 7.66 46.2009 6.85333 45.6009 6.24C45.0009 5.62667 44.2409 5.32 43.3209 5.32C42.4009 5.32 41.6409 5.62667 41.0409 6.24C40.4542 6.85333 40.1609 7.66 40.1609 8.66C40.1609 9.66 40.4542 10.4667 41.0409 11.08C41.6409 11.6933 42.4009 12 43.3209 12Z" fill="black"/>
</svg>
