<svg width="24" height="24" viewBox="0 0 24 24" fill="none" xmlns="http://www.w3.org/2000/svg">
<path d="M11.5263 0C5.16072 0 0 5.16049 0 11.5263C0 17.8921 5.16072 23.0526 11.5263 23.0526C17.8919 23.0526 23.0526 17.8921 23.0526 11.5263C23.0526 5.16049 17.8919 0 11.5263 0ZM17.3731 12.7729C17.9103 13.2977 18.4787 13.7915 18.9609 14.3705C19.1746 14.6266 19.376 14.8914 19.5293 15.1893C19.7481 15.614 19.5505 16.0798 19.1704 16.105L16.809 16.1045C16.1991 16.155 15.7138 15.909 15.3046 15.4921C14.978 15.1598 14.6749 14.8049 14.3603 14.4613C14.2318 14.3202 14.0964 14.1874 13.9351 14.083C13.6132 13.8736 13.3335 13.9377 13.1491 14.274C12.9611 14.6162 12.9182 14.9954 12.9003 15.3763C12.8746 15.9331 12.7067 16.0786 12.148 16.1048C10.9542 16.1607 9.82148 15.9795 8.76873 15.3777C7.84002 14.8468 7.1212 14.0976 6.49483 13.2493C5.2751 11.5956 4.34097 9.78068 3.50164 7.9136C3.31274 7.49311 3.45094 7.26812 3.91482 7.2594C4.68552 7.24454 5.45622 7.24643 6.22692 7.25869C6.54058 7.26364 6.74811 7.44311 6.86862 7.73908C7.2851 8.76377 7.79568 9.73871 8.43549 10.6429C8.606 10.8837 8.78005 11.1237 9.02791 11.2938C9.30147 11.4815 9.50995 11.4195 9.63895 11.1141C9.72149 10.92 9.7571 10.7125 9.77502 10.5045C9.83634 9.792 9.84365 9.07979 9.73753 8.37017C9.67149 7.9261 9.42175 7.63932 8.97909 7.55537C8.75363 7.51268 8.78665 7.4292 8.89631 7.30043C9.08663 7.07781 9.26492 6.94008 9.62126 6.94008L12.2892 6.93961C12.7097 7.02215 12.8041 7.21082 12.8611 7.63437L12.8635 10.5993C12.8585 10.7632 12.9458 11.249 13.2401 11.3563C13.4759 11.4341 13.6316 11.245 13.7726 11.0957C14.4124 10.4167 14.8683 9.61537 15.2765 8.78594C15.4567 8.42017 15.6121 8.04165 15.763 7.66244C15.8753 7.38203 16.0498 7.24407 16.3663 7.24878L18.9355 7.25185C19.0112 7.25185 19.0881 7.25256 19.163 7.26553C19.596 7.33958 19.7147 7.52589 19.5807 7.94826C19.3699 8.6119 18.9602 9.16469 18.5598 9.71889C18.1306 10.3122 17.6728 10.8849 17.2478 11.4808C16.8573 12.0256 16.8882 12.2998 17.3731 12.7729Z" fill="#162345"/>
</svg>
