<svg width="26" height="36" viewBox="0 0 26 36" fill="none" xmlns="http://www.w3.org/2000/svg">
<g clip-path="url(#clip0)">
<path d="M17.534 23.0593C17.5949 22.9625 17.6366 22.8381 17.6538 22.7021C17.671 22.5661 17.6629 22.4248 17.6305 22.2964C17.5981 22.168 17.543 22.0585 17.4721 21.982C17.4013 21.9055 17.3181 21.8655 17.2332 21.8671H15.1914V13.2167C15.1925 13.1254 15.1826 13.0345 15.162 12.9495C15.1415 12.8645 15.1109 12.787 15.0719 12.7216C15.0328 12.6561 14.9863 12.604 14.9349 12.5683C14.8834 12.5326 14.8282 12.514 14.7723 12.5136L11.2127 12.5099C11.1582 12.5099 11.1042 12.5282 11.0542 12.5636C11.0041 12.599 10.959 12.6508 10.9216 12.7157C10.8835 12.7821 10.8539 12.8603 10.8344 12.9457C10.815 13.0311 10.8062 13.122 10.8086 13.213V21.8671H8.76684C8.68185 21.8658 8.59855 21.9061 8.52767 21.9829C8.45679 22.0596 8.40156 22.1693 8.36908 22.2979C8.34797 22.3811 8.33711 22.4703 8.33711 22.5604C8.33711 22.6537 8.34852 22.746 8.37065 22.832C8.39279 22.918 8.42522 22.9958 8.46602 23.061L12.6992 29.8522C12.7795 29.981 12.8875 30.0532 13 30.0532C13.1125 30.0532 13.2205 29.981 13.3008 29.8522L17.534 23.0593ZM9.8188 23.2734H11.2176C11.4549 23.2734 11.668 22.9455 11.668 22.5572V13.9166L14.332 13.9194V22.5572C14.332 22.9455 14.5451 23.2734 14.7824 23.2734H16.1812L13 28.3777L9.8188 23.2734Z" fill="url(#paint0_linear)"/>
<path d="M15.1914 11.0296V11.0292C15.1926 10.9378 15.1826 10.847 15.1621 10.762C15.1415 10.677 15.1109 10.5995 15.0719 10.534C15.0329 10.4686 14.9863 10.4165 14.9349 10.3808C14.8835 10.3451 14.8282 10.3265 14.7723 10.3261L11.2231 10.3225C11.1675 10.323 11.1125 10.3416 11.0614 10.3774C11.0102 10.4132 10.964 10.4653 10.9254 10.5308C10.8867 10.5962 10.8565 10.6737 10.8365 10.7586C10.8164 10.8435 10.8069 10.934 10.8086 11.025V11.0254C10.8075 11.1168 10.8174 11.2077 10.838 11.2927C10.8585 11.3777 10.8891 11.4552 10.9281 11.5206C10.9672 11.586 11.0137 11.6381 11.0651 11.6738C11.1166 11.7095 11.1718 11.7281 11.2277 11.7285L14.7769 11.7321C14.8325 11.7317 14.8875 11.713 14.9386 11.6772C14.9898 11.6415 15.036 11.5893 15.0746 11.5239C15.1133 11.4584 15.1435 11.3809 15.1636 11.2961C15.1836 11.2112 15.1931 11.1206 15.1914 11.0296V11.0296Z" fill="url(#paint1_linear)"/>
<path d="M15.1914 8.84221V8.84179C15.1925 8.7504 15.1826 8.65956 15.162 8.57454C15.1415 8.48953 15.1109 8.41205 15.0718 8.34661C15.0328 8.28117 14.9863 8.22909 14.9349 8.19339C14.8834 8.15769 14.8282 8.13909 14.7723 8.13867L11.2231 8.13501C11.1675 8.13547 11.1125 8.15413 11.0613 8.18992C11.0102 8.2257 10.9639 8.27787 10.9253 8.34336C10.8867 8.40885 10.8565 8.48632 10.8364 8.57122C10.8164 8.65613 10.8069 8.74674 10.8086 8.83771V8.83814C10.8074 8.92952 10.8174 9.02037 10.838 9.10538C10.8585 9.1904 10.8891 9.26788 10.9281 9.33332C10.9671 9.39875 11.0137 9.45084 11.0651 9.48654C11.1166 9.52224 11.1718 9.54084 11.2277 9.54126L14.7769 9.54492C14.8325 9.54446 14.8875 9.52579 14.9386 9.49001C14.9898 9.45423 15.036 9.40206 15.0747 9.33657C15.1133 9.27108 15.1435 9.19361 15.1636 9.1087C15.1836 9.0238 15.1931 8.93319 15.1914 8.84221V8.84221Z" fill="url(#paint2_linear)"/>
<path d="M15.1914 6.65471V6.65429C15.1925 6.5629 15.1826 6.47206 15.162 6.38704C15.1415 6.30203 15.1109 6.22455 15.0718 6.15911C15.0328 6.09367 14.9863 6.04159 14.9349 6.00589C14.8834 5.97019 14.8282 5.95159 14.7723 5.95117L11.2231 5.94751C11.1675 5.94797 11.1125 5.96663 11.0613 6.00242C11.0102 6.0382 10.9639 6.09037 10.9253 6.15586C10.8867 6.22134 10.8565 6.29882 10.8364 6.38372C10.8164 6.46863 10.8069 6.55924 10.8086 6.65021V6.65063C10.8074 6.74202 10.8174 6.83287 10.838 6.91788C10.8585 7.0029 10.8891 7.08038 10.9281 7.14582C10.9671 7.21125 11.0137 7.26334 11.0651 7.29904C11.1166 7.33474 11.1718 7.35334 11.2277 7.35376L14.7769 7.35742C14.8325 7.35696 14.8875 7.33829 14.9386 7.30251C14.9898 7.26673 15.036 7.21456 15.0747 7.14907C15.1133 7.08358 15.1435 7.0061 15.1636 6.9212C15.1836 6.8363 15.1931 6.74569 15.1914 6.65471V6.65471Z" fill="url(#paint3_linear)"/>
</g>
<defs>
<linearGradient id="paint0_linear" x1="22.5391" y1="21.2814" x2="3.21248" y2="21.2814" gradientUnits="userSpaceOnUse">
<stop stop-color="#00EFD1"/>
<stop offset="1" stop-color="#00ACEA"/>
</linearGradient>
<linearGradient id="paint1_linear" x1="-133.837" y1="231.399" x2="-2105.32" y2="231.399" gradientUnits="userSpaceOnUse">
<stop stop-color="#00EFD1"/>
<stop offset="1" stop-color="#00ACEA"/>
</linearGradient>
<linearGradient id="paint2_linear" x1="-133.837" y1="185.394" x2="-2105.32" y2="185.394" gradientUnits="userSpaceOnUse">
<stop stop-color="#00EFD1"/>
<stop offset="1" stop-color="#00ACEA"/>
</linearGradient>
<linearGradient id="paint3_linear" x1="-133.837" y1="139.343" x2="-2105.32" y2="139.343" gradientUnits="userSpaceOnUse">
<stop stop-color="#00EFD1"/>
<stop offset="1" stop-color="#00ACEA"/>
</linearGradient>
<clipPath id="clip0">
<rect width="36" height="22" fill="white" transform="translate(24) rotate(90)"/>
</clipPath>
</defs>
</svg>
