<svg width="45" height="44" viewBox="0 0 45 44" fill="none" xmlns="http://www.w3.org/2000/svg">
<g clip-path="url(#clip0)">
<path d="M22.413 0C10.0362 0 0 10.0369 0 22.4184C0 32.3236 6.42199 40.727 15.3274 43.6914C16.4475 43.8988 16.8588 43.205 16.8588 42.6129C16.8588 42.0784 16.8379 40.3122 16.8284 38.439C10.5929 39.7951 9.27721 35.7939 9.27721 35.7939C8.25768 33.2026 6.78867 32.5137 6.78867 32.5137C4.75523 31.1222 6.94195 31.1507 6.94195 31.1507C9.19266 31.309 10.3778 33.4611 10.3778 33.4611C12.3768 36.8884 15.621 35.8974 16.9 35.3248C17.1011 33.8756 17.682 32.8868 18.3229 32.327C13.3448 31.76 8.11143 29.8377 8.11143 21.2476C8.11143 18.8001 8.98699 16.8002 10.4208 15.2302C10.1881 14.6655 9.421 12.3854 10.6379 9.29739C10.6379 9.29739 12.52 8.69484 16.8031 11.5954C18.5908 11.0985 20.5082 10.8496 22.413 10.8411C24.3178 10.8496 26.2366 11.0985 28.0278 11.5954C32.3058 8.69484 34.1852 9.29739 34.1852 9.29739C35.4052 12.3854 34.6377 14.6655 34.405 15.2302C35.842 16.8002 36.7116 18.8 36.7116 21.2476C36.7116 29.8581 31.4684 31.7542 26.4776 32.3091C27.2814 33.0048 27.9977 34.3692 27.9977 36.4606C27.9977 39.4602 27.9717 41.8744 27.9717 42.6129C27.9717 43.2094 28.3751 43.9085 29.5114 43.6884C38.4119 40.7206 44.8258 32.3203 44.8258 22.4184C44.8258 10.0369 34.791 0 22.413 0Z" fill="#161614"/>
<path d="M8.39443 31.9329C8.34521 32.0442 8.16978 32.0776 8.01035 32.0013C7.84775 31.9281 7.75634 31.7762 7.80908 31.6644C7.85742 31.5498 8.03285 31.5178 8.19509 31.5948C8.35804 31.6677 8.45086 31.8211 8.39443 31.9329ZM9.49693 32.9168C9.39006 33.016 9.18105 32.9699 9.0392 32.8132C8.89259 32.6569 8.86517 32.4481 8.97363 32.3473C9.08384 32.2483 9.28652 32.2946 9.43347 32.451C9.58008 32.6091 9.60855 32.8168 9.49676 32.917L9.49693 32.9168ZM10.2533 34.1757C10.1159 34.2712 9.89121 34.1817 9.75252 33.9823C9.61523 33.7831 9.61523 33.544 9.75551 33.4481C9.89472 33.3523 10.1159 33.4385 10.2565 33.6363C10.3936 33.839 10.3936 34.0781 10.2531 34.1759L10.2533 34.1757ZM11.5323 35.6338C11.4094 35.7692 11.1479 35.733 10.9563 35.548C10.7604 35.3673 10.7058 35.1107 10.829 34.9752C10.9533 34.8394 11.2164 34.8776 11.4094 35.061C11.604 35.2414 11.6634 35.4998 11.5325 35.6338H11.5323ZM13.1853 36.1261C13.1314 36.3016 12.8793 36.3814 12.6255 36.3069C12.372 36.23 12.2061 36.0243 12.2572 35.8469C12.31 35.6702 12.5631 35.587 12.8188 35.6669C13.072 35.7433 13.2383 35.9475 13.1855 36.1261H13.1853ZM15.0669 36.3348C15.0732 36.5198 14.8579 36.6731 14.5914 36.6764C14.3234 36.6823 14.1066 36.5326 14.1038 36.3508C14.1038 36.1641 14.3142 36.0122 14.5821 36.0078C14.8486 36.0025 15.0669 36.1511 15.0669 36.3348ZM16.9151 36.264C16.9471 36.4444 16.7618 36.6297 16.4972 36.6789C16.2371 36.7264 15.9963 36.6151 15.963 36.4363C15.9307 36.2513 16.1195 36.0662 16.3791 36.0182C16.6442 35.9721 16.8813 36.0806 16.9151 36.264Z" fill="#161614"/>
</g>
<defs>
<clipPath id="clip0">
<rect width="45" height="43.7866" fill="white"/>
</clipPath>
</defs>
</svg>
