<svg width="45" height="45" viewBox="0 0 45 45" fill="none" xmlns="http://www.w3.org/2000/svg">
<path d="M15.0027 22.5C15.0027 18.358 18.3595 14.9994 22.5015 14.9994C26.6435 14.9994 30.0021 18.358 30.0021 22.5C30.0021 26.642 26.6435 30.0006 22.5015 30.0006C18.3595 30.0006 15.0027 26.642 15.0027 22.5ZM10.948 22.5C10.948 28.881 16.1205 34.0535 22.5015 34.0535C28.8825 34.0535 34.055 28.881 34.055 22.5C34.055 16.119 28.8825 10.9465 22.5015 10.9465C16.1205 10.9465 10.948 16.119 10.948 22.5ZM31.8124 10.4884C31.8121 11.0224 31.9703 11.5445 32.2668 11.9886C32.5633 12.4328 32.9848 12.779 33.4781 12.9836C33.9714 13.1881 34.5142 13.2418 35.038 13.1378C35.5618 13.0339 36.043 12.7769 36.4208 12.3995C36.7985 12.022 37.0559 11.541 37.1603 11.0173C37.2646 10.4936 37.2114 9.95069 37.0072 9.45725C36.8031 8.96381 36.4572 8.54199 36.0133 8.24513C35.5694 7.94827 35.0474 7.78971 34.5134 7.7895H34.5124C33.7966 7.78983 33.1102 8.07426 32.6039 8.5803C32.0977 9.08634 31.813 9.77262 31.8124 10.4884ZM13.4115 40.8145C11.2178 40.7146 10.0255 40.3492 9.23315 40.0405C8.18267 39.6315 7.43315 39.1444 6.64511 38.3575C5.85707 37.5705 5.36927 36.8217 4.96211 35.7712C4.65323 34.9792 4.28783 33.7865 4.18811 31.5929C4.07903 29.2212 4.05725 28.5088 4.05725 22.5002C4.05725 16.4916 4.08083 15.7811 4.18811 13.4075C4.28801 11.2138 4.65611 10.0235 4.96211 9.22914C5.37107 8.17866 5.85815 7.42914 6.64511 6.6411C7.43207 5.85306 8.18087 5.36526 9.23315 4.9581C10.0252 4.64922 11.2178 4.28382 13.4115 4.1841C15.7832 4.07502 16.4956 4.05324 22.5015 4.05324C28.5074 4.05324 29.2205 4.07682 31.5942 4.1841C33.7878 4.284 34.9782 4.6521 35.7725 4.9581C36.823 5.36526 37.5725 5.85414 38.3606 6.6411C39.1486 7.42806 39.6346 8.17866 40.0436 9.22914C40.3525 10.0211 40.7178 11.2138 40.8176 13.4075C40.9267 15.7811 40.9484 16.4916 40.9484 22.5002C40.9484 28.5088 40.9267 29.2192 40.8176 31.5929C40.7177 33.7865 40.3505 34.9789 40.0436 35.7712C39.6346 36.8217 39.1475 37.5712 38.3606 38.3575C37.5736 39.1437 36.823 39.6315 35.7725 40.0405C34.9805 40.3493 33.7878 40.7147 31.5942 40.8145C29.2225 40.9235 28.5101 40.9453 22.5015 40.9453C16.4929 40.9453 15.7825 40.9235 13.4115 40.8145ZM13.2252 0.13626C10.8299 0.24534 9.19319 0.62514 7.76381 1.18134C6.28349 1.75572 5.03033 2.5263 3.77807 3.77658C2.52582 5.02686 1.75722 6.282 1.18284 7.76232C0.626635 9.1926 0.246835 10.8284 0.137755 13.2237C0.0268754 15.6227 0.00149536 16.3897 0.00149536 22.5C0.00149536 28.6103 0.0268754 29.3773 0.137755 31.7763C0.246835 34.1717 0.626635 35.8074 1.18284 37.2377C1.75722 38.7171 2.526 39.9737 3.77807 41.2234C5.03015 42.4732 6.28349 43.2427 7.76381 43.8187C9.19589 44.3749 10.8299 44.7547 13.2252 44.8637C15.6255 44.9728 16.3912 45 22.5015 45C28.6118 45 29.3787 44.9746 31.7778 44.8637C34.1732 44.7547 35.8089 44.3749 37.2392 43.8187C38.7186 43.2427 39.9726 42.4737 41.2249 41.2234C42.4772 39.9731 43.2442 38.7171 43.8202 37.2377C44.3764 35.8074 44.7579 34.1716 44.8652 31.7763C44.9743 29.3755 44.9997 28.6103 44.9997 22.5C44.9997 16.3897 44.9743 15.6227 44.8652 13.2237C44.7561 10.8283 44.3764 9.1917 43.8202 7.76232C43.2442 6.2829 42.4752 5.02884 41.2249 3.77658C39.9746 2.52432 38.7186 1.75572 37.241 1.18134C35.8089 0.62514 34.173 0.24354 31.7796 0.13626C29.3806 0.02718 28.6136 0 22.5033 0C16.393 0 15.6255 0.02538 13.2252 0.13626Z" fill="url(#paint0_radial)"/>
<path d="M15.0027 22.5C15.0027 18.358 18.3595 14.9994 22.5015 14.9994C26.6435 14.9994 30.0021 18.358 30.0021 22.5C30.0021 26.642 26.6435 30.0006 22.5015 30.0006C18.3595 30.0006 15.0027 26.642 15.0027 22.5ZM10.948 22.5C10.948 28.881 16.1205 34.0535 22.5015 34.0535C28.8825 34.0535 34.055 28.881 34.055 22.5C34.055 16.119 28.8825 10.9465 22.5015 10.9465C16.1205 10.9465 10.948 16.119 10.948 22.5ZM31.8124 10.4884C31.8121 11.0224 31.9703 11.5445 32.2668 11.9886C32.5633 12.4328 32.9848 12.779 33.4781 12.9836C33.9714 13.1881 34.5142 13.2418 35.038 13.1378C35.5618 13.0339 36.043 12.7769 36.4208 12.3995C36.7985 12.022 37.0559 11.541 37.1603 11.0173C37.2646 10.4936 37.2114 9.95069 37.0072 9.45725C36.8031 8.96381 36.4572 8.54199 36.0133 8.24513C35.5694 7.94827 35.0474 7.78971 34.5134 7.7895H34.5124C33.7966 7.78983 33.1102 8.07426 32.6039 8.5803C32.0977 9.08634 31.813 9.77262 31.8124 10.4884ZM13.4115 40.8145C11.2178 40.7146 10.0255 40.3492 9.23315 40.0405C8.18267 39.6315 7.43315 39.1444 6.64511 38.3575C5.85707 37.5705 5.36927 36.8217 4.96211 35.7712C4.65323 34.9792 4.28783 33.7865 4.18811 31.5929C4.07903 29.2212 4.05725 28.5088 4.05725 22.5002C4.05725 16.4916 4.08083 15.7811 4.18811 13.4075C4.28801 11.2138 4.65611 10.0235 4.96211 9.22914C5.37107 8.17866 5.85815 7.42914 6.64511 6.6411C7.43207 5.85306 8.18087 5.36526 9.23315 4.9581C10.0252 4.64922 11.2178 4.28382 13.4115 4.1841C15.7832 4.07502 16.4956 4.05324 22.5015 4.05324C28.5074 4.05324 29.2205 4.07682 31.5942 4.1841C33.7878 4.284 34.9782 4.6521 35.7725 4.9581C36.823 5.36526 37.5725 5.85414 38.3606 6.6411C39.1486 7.42806 39.6346 8.17866 40.0436 9.22914C40.3525 10.0211 40.7178 11.2138 40.8176 13.4075C40.9267 15.7811 40.9484 16.4916 40.9484 22.5002C40.9484 28.5088 40.9267 29.2192 40.8176 31.5929C40.7177 33.7865 40.3505 34.9789 40.0436 35.7712C39.6346 36.8217 39.1475 37.5712 38.3606 38.3575C37.5736 39.1437 36.823 39.6315 35.7725 40.0405C34.9805 40.3493 33.7878 40.7147 31.5942 40.8145C29.2225 40.9235 28.5101 40.9453 22.5015 40.9453C16.4929 40.9453 15.7825 40.9235 13.4115 40.8145ZM13.2252 0.13626C10.8299 0.24534 9.19319 0.62514 7.76381 1.18134C6.28349 1.75572 5.03033 2.5263 3.77807 3.77658C2.52582 5.02686 1.75722 6.282 1.18284 7.76232C0.626635 9.1926 0.246835 10.8284 0.137755 13.2237C0.0268754 15.6227 0.00149536 16.3897 0.00149536 22.5C0.00149536 28.6103 0.0268754 29.3773 0.137755 31.7763C0.246835 34.1717 0.626635 35.8074 1.18284 37.2377C1.75722 38.7171 2.526 39.9737 3.77807 41.2234C5.03015 42.4732 6.28349 43.2427 7.76381 43.8187C9.19589 44.3749 10.8299 44.7547 13.2252 44.8637C15.6255 44.9728 16.3912 45 22.5015 45C28.6118 45 29.3787 44.9746 31.7778 44.8637C34.1732 44.7547 35.8089 44.3749 37.2392 43.8187C38.7186 43.2427 39.9726 42.4737 41.2249 41.2234C42.4772 39.9731 43.2442 38.7171 43.8202 37.2377C44.3764 35.8074 44.7579 34.1716 44.8652 31.7763C44.9743 29.3755 44.9997 28.6103 44.9997 22.5C44.9997 16.3897 44.9743 15.6227 44.8652 13.2237C44.7561 10.8283 44.3764 9.1917 43.8202 7.76232C43.2442 6.2829 42.4752 5.02884 41.2249 3.77658C39.9746 2.52432 38.7186 1.75572 37.241 1.18134C35.8089 0.62514 34.173 0.24354 31.7796 0.13626C29.3806 0.02718 28.6136 0 22.5033 0C16.393 0 15.6255 0.02538 13.2252 0.13626Z" fill="url(#paint1_radial)"/>
<defs>
<radialGradient id="paint0_radial" cx="0" cy="0" r="1" gradientUnits="userSpaceOnUse" gradientTransform="translate(5.98001 45.2126) scale(58.7437)">
<stop offset="0.09" stop-color="#FA8F21"/>
<stop offset="0.78" stop-color="#D82D7E"/>
</radialGradient>
<radialGradient id="paint1_radial" cx="0" cy="0" r="1" gradientUnits="userSpaceOnUse" gradientTransform="translate(27.292 47.2286) scale(46.2982)">
<stop offset="0.64" stop-color="#8C3AAA" stop-opacity="0"/>
<stop offset="1" stop-color="#8C3AAA"/>
</radialGradient>
</defs>
</svg>
