<svg width="45" height="45" viewBox="0 0 45 45" fill="none" xmlns="http://www.w3.org/2000/svg">
<path fill-rule="evenodd" clip-rule="evenodd" d="M15.6 0H29.4C42 0 45 3 45 15.6V29.4C45 42 42 45 29.4 45H15.6C3 45 0 42 0 29.4V15.6C0 3 3 0 15.6 0Z" fill="#5181B8"/>
<path fill-rule="evenodd" clip-rule="evenodd" d="M36.8517 15.503C37.0603 14.8078 36.8517 14.2969 35.8594 14.2969H32.5781C31.7437 14.2969 31.3594 14.7382 31.1508 15.225C31.1508 15.225 29.482 19.2921 27.1181 21.934C26.3534 22.6988 26.0058 22.942 25.5886 22.942C25.38 22.942 25.0781 22.6988 25.0781 22.0036V15.503C25.0781 14.6686 24.836 14.2969 24.1406 14.2969H18.9844C18.4631 14.2969 18.1495 14.6841 18.1495 15.0511C18.1495 15.8421 19.3312 16.0245 19.4531 18.2491V23.0813C19.4531 24.1406 19.2619 24.3328 18.8447 24.3328C17.7323 24.3328 15.0267 20.2472 13.4217 15.5726C13.1072 14.6639 12.7917 14.2969 11.9531 14.2969H8.67187C7.73437 14.2969 7.54688 14.7382 7.54688 15.225C7.54688 16.0941 8.65945 20.4047 12.7266 26.1056C15.438 29.9988 19.2581 32.1094 22.7344 32.1094C24.8203 32.1094 25.0781 31.6406 25.0781 30.8332V27.8906C25.0781 26.9531 25.2757 26.7661 25.9362 26.7661C26.423 26.7661 27.2571 27.0094 29.2041 28.8865C31.4287 31.1114 31.7953 32.1094 33.0469 32.1094H36.3281C37.2656 32.1094 37.7344 31.6406 37.4639 30.7156C37.1681 29.7935 36.1059 28.4562 34.6964 26.8704C33.9316 25.9664 32.7844 24.9931 32.437 24.5065C31.9502 23.8807 32.0892 23.6025 32.437 23.0463C32.437 23.0463 36.4345 17.415 36.8517 15.503Z" fill="white"/>
</svg>
