<svg width="45" height="46" viewBox="0 0 45 46" fill="none" xmlns="http://www.w3.org/2000/svg">
<g clip-path="url(#clip0)">
<path d="M38.4429 6.57212C34.2127 2.3365 28.5877 0.00258425 22.5946 0C10.2451 0 0.194996 10.0527 0.190052 22.4088C0.188613 26.3585 1.22002 30.214 3.18044 33.6125L0.00195312 45.225L11.8789 42.1089C15.1512 43.8946 18.8356 44.8355 22.585 44.837H22.5945H22.5946C34.9422 44.837 44.9938 34.7826 44.999 22.427C45.0011 16.4386 42.6726 10.808 38.4429 6.57212ZM22.5946 41.0521H22.5874C19.2454 41.0503 15.9681 40.1525 13.1095 38.4553L12.4292 38.0518L5.38114 39.9007L7.26286 33.0275L6.81962 32.3229C4.95543 29.357 3.97128 25.9296 3.97269 22.4103C3.97678 12.1402 12.33 3.78508 22.6017 3.78508C27.5758 3.78715 32.2508 5.72711 35.7669 9.24763C39.2827 12.7681 41.2175 17.4481 41.2161 22.4254C41.2117 32.6958 32.8582 41.0521 22.5946 41.0521Z" fill="#E0E0E0"/>
<path d="M1.02997 43.9365L4.06327 32.8545C2.19191 29.6112 1.20781 25.9315 1.20899 22.163C1.2139 10.3715 10.805 0.77832 22.5894 0.77832C28.309 0.780905 33.6771 3.00809 37.7132 7.05034C41.7502 11.0925 43.9721 16.4655 43.9698 22.1797C43.9649 33.9715 34.3732 43.5656 22.5903 43.5656C22.5894 43.5656 22.5908 43.5656 22.5903 43.5656H22.5807C19.0026 43.5644 15.4868 42.6657 12.3641 40.9628L1.02997 43.9365Z" fill="url(#paint0_linear)"/>
<path fill-rule="evenodd" clip-rule="evenodd" d="M17.0577 12.8952C16.6432 11.9731 16.2068 11.9547 15.8125 11.9385C15.4899 11.9247 15.1207 11.9255 14.752 11.9255C14.383 11.9255 13.7835 12.0643 13.2764 12.6183C12.7691 13.1724 11.3394 14.5118 11.3394 17.236C11.3394 19.9604 13.3225 22.5928 13.599 22.9626C13.8757 23.3317 17.4273 29.1007 23.052 31.3201C27.7266 33.1646 28.6779 32.7977 29.6925 32.7054C30.7072 32.6131 32.9665 31.3663 33.4277 30.0733C33.8889 28.7806 33.8889 27.6725 33.7505 27.4408C33.6122 27.2101 33.2432 27.0717 32.6898 26.7948C32.1363 26.5179 29.4158 25.1782 28.9085 24.9936C28.4011 24.809 28.0322 24.7167 27.6632 25.2711C27.2942 25.8248 26.2343 27.0717 25.9115 27.4408C25.5886 27.8109 25.2658 27.857 24.7123 27.5801C24.1589 27.3024 22.3766 26.7183 20.2623 24.832C18.6172 23.3646 17.5065 21.5521 17.1837 20.9978C16.8609 20.444 17.1491 20.1441 17.4267 19.868C17.6752 19.62 17.9801 19.2217 18.2569 18.8983C18.533 18.575 18.6252 18.3443 18.8097 17.9751C18.9942 17.6053 18.902 17.282 18.7636 17.0052C18.6252 16.7283 17.5498 13.9901 17.0577 12.8952Z" fill="white"/>
<path d="M38.2594 6.50085C34.0777 2.31384 28.5173 0.00677156 22.5931 0.00415039C10.3852 0.00415039 0.450534 9.94141 0.445626 22.1557C0.444187 26.0601 1.46375 29.8713 3.40167 33.2308L0.259705 44.71L12.0003 41.6296C15.2351 43.3947 18.8772 44.3249 22.5836 44.3264H22.593H22.5931C34.7989 44.3264 44.735 34.3874 44.7402 22.1736C44.7423 16.2541 42.4405 10.6881 38.2594 6.50085ZM22.5931 40.585H22.5859C19.2822 40.5833 16.0425 39.6958 13.2167 38.0181L12.5442 37.6192L5.57712 39.4469L7.43723 32.6526L6.99908 31.956C5.15628 29.0242 4.18343 25.6361 4.18487 22.1572C4.18889 12.0051 12.4462 3.74585 22.6 3.74585C27.5171 3.74788 32.1384 5.66558 35.6141 9.14568C39.0896 12.6258 41.0022 17.252 41.0007 22.1722C40.9964 32.3246 32.7387 40.585 22.5931 40.585Z" fill="white"/>
</g>
<defs>
<linearGradient id="paint0_linear" x1="22.4999" y1="43.9365" x2="22.4999" y2="0.778392" gradientUnits="userSpaceOnUse">
<stop stop-color="#20B038"/>
<stop offset="1" stop-color="#60D66A"/>
</linearGradient>
<clipPath id="clip0">
<rect width="45" height="45.225" fill="white"/>
</clipPath>
</defs>
</svg>
