<svg width="60" height="60" viewBox="0 0 60 60" fill="none" xmlns="http://www.w3.org/2000/svg">
<path d="M5 3C5 4.1 4.1 5 3 5C1.9 5 1 4.1 1 3C1 1.9 1.9 1 3 1C4.1 1 5 1.9 5 3Z" stroke="#162345" stroke-miterlimit="10"/>
<path d="M18.6001 3C18.6001 4.1 17.7001 5 16.6001 5C15.5001 5 14.6001 4.1 14.6001 3C14.6001 1.9 15.5001 1 16.6001 1C17.7001 1 18.6001 1.9 18.6001 3Z" stroke="#162345" stroke-miterlimit="10"/>
<path d="M32.3 3C32.3 4.1 31.4 5 30.3 5C29.2 5 28.3 4.1 28.3 3C28.3 1.9 29.2 1 30.3 1C31.4 1 32.3 1.9 32.3 3Z" stroke="#162345" stroke-miterlimit="10"/>
<path d="M45.8999 3C45.8999 4.1 44.9999 5 43.8999 5C42.7999 5 41.8999 4.1 41.8999 3C41.8999 1.9 42.7999 1 43.8999 1C44.9999 1 45.8999 1.9 45.8999 3Z" stroke="#162345" stroke-miterlimit="10"/>
<path d="M59.5 3C59.5 4.1 58.6 5 57.5 5C56.4 5 55.5 4.1 55.5 3C55.5 1.9 56.4 1 57.5 1C58.6 1 59.5 1.9 59.5 3Z" stroke="#162345" stroke-miterlimit="10"/>
<path d="M5 16.6001C5 17.7001 4.1 18.6001 3 18.6001C1.9 18.6001 1 17.7001 1 16.6001C1 15.5001 1.9 14.6001 3 14.6001C4.1 14.6001 5 15.5001 5 16.6001Z" stroke="#162345" stroke-miterlimit="10"/>
<path d="M18.6001 16.6001C18.6001 17.7001 17.7001 18.6001 16.6001 18.6001C15.5001 18.6001 14.6001 17.7001 14.6001 16.6001C14.6001 15.5001 15.5001 14.6001 16.6001 14.6001C17.7001 14.6001 18.6001 15.5001 18.6001 16.6001Z" stroke="#162345" stroke-miterlimit="10"/>
<path d="M32.3 16.6001C32.3 17.7001 31.4 18.6001 30.3 18.6001C29.2 18.6001 28.3 17.7001 28.3 16.6001C28.3 15.5001 29.2 14.6001 30.3 14.6001C31.4 14.6001 32.3 15.5001 32.3 16.6001Z" stroke="#162345" stroke-miterlimit="10"/>
<path d="M45.8999 16.6001C45.8999 17.7001 44.9999 18.6001 43.8999 18.6001C42.7999 18.6001 41.8999 17.7001 41.8999 16.6001C41.8999 15.5001 42.7999 14.6001 43.8999 14.6001C44.9999 14.6001 45.8999 15.5001 45.8999 16.6001Z" stroke="#162345" stroke-miterlimit="10"/>
<path d="M59.5 16.6001C59.5 17.7001 58.6 18.6001 57.5 18.6001C56.4 18.6001 55.5 17.7001 55.5 16.6001C55.5 15.5001 56.4 14.6001 57.5 14.6001C58.6 14.6001 59.5 15.5001 59.5 16.6001Z" stroke="#162345" stroke-miterlimit="10"/>
<path d="M5 30.3001C5 31.4001 4.1 32.3001 3 32.3001C1.9 32.3001 1 31.4001 1 30.3001C1 29.2001 1.9 28.3001 3 28.3001C4.1 28.2001 5 29.1001 5 30.3001Z" stroke="#162345" stroke-miterlimit="10"/>
<path d="M18.6001 30.3001C18.6001 31.4001 17.7001 32.3001 16.6001 32.3001C15.5001 32.3001 14.6001 31.4001 14.6001 30.3001C14.6001 29.2001 15.5001 28.3001 16.6001 28.3001C17.7001 28.2001 18.6001 29.1001 18.6001 30.3001Z" stroke="#162345" stroke-miterlimit="10"/>
<path d="M32.3 30.3001C32.3 31.4001 31.4 32.3001 30.3 32.3001C29.2 32.3001 28.3 31.4001 28.3 30.3001C28.3 29.2001 29.2 28.3001 30.3 28.3001C31.4 28.2001 32.3 29.1001 32.3 30.3001Z" stroke="#162345" stroke-miterlimit="10"/>
<path d="M45.8999 30.2998C45.8999 31.3998 44.9999 32.2998 43.8999 32.2998C42.7999 32.2998 41.8999 31.3998 41.8999 30.2998C41.8999 29.1998 42.7999 28.2998 43.8999 28.2998C44.9999 28.2998 45.8999 29.0998 45.8999 30.2998Z" stroke="#162345" stroke-miterlimit="10"/>
<path d="M59.5 30.3001C59.5 31.4001 58.6 32.3001 57.5 32.3001C56.4 32.3001 55.5 31.4001 55.5 30.3001C55.5 29.2001 56.4 28.3001 57.5 28.3001C58.6 28.2001 59.5 29.1001 59.5 30.3001Z" stroke="#162345" stroke-miterlimit="10"/>
<path d="M5 43.9004C5 45.0004 4.1 45.9004 3 45.9004C1.9 45.9004 1 45.0004 1 43.9004C1 42.8004 1.9 41.9004 3 41.9004C4.1 41.9004 5 42.8004 5 43.9004Z" stroke="#162345" stroke-miterlimit="10"/>
<path d="M18.6001 43.9004C18.6001 45.0004 17.7001 45.9004 16.6001 45.9004C15.5001 45.9004 14.6001 45.0004 14.6001 43.9004C14.6001 42.8004 15.5001 41.9004 16.6001 41.9004C17.7001 41.9004 18.6001 42.8004 18.6001 43.9004Z" stroke="#162345" stroke-miterlimit="10"/>
<path d="M32.3 43.9004C32.3 45.0004 31.4 45.9004 30.3 45.9004C29.2 45.9004 28.3 45.0004 28.3 43.9004C28.3 42.8004 29.2 41.9004 30.3 41.9004C31.4 41.9004 32.3 42.8004 32.3 43.9004Z" stroke="#162345" stroke-miterlimit="10"/>
<path d="M45.8999 43.9004C45.8999 45.0004 44.9999 45.9004 43.8999 45.9004C42.7999 45.9004 41.8999 45.0004 41.8999 43.9004C41.8999 42.8004 42.7999 41.9004 43.8999 41.9004C44.9999 41.9004 45.8999 42.8004 45.8999 43.9004Z" stroke="#162345" stroke-miterlimit="10"/>
<path d="M59.5 43.9004C59.5 45.0004 58.6 45.9004 57.5 45.9004C56.4 45.9004 55.5 45.0004 55.5 43.9004C55.5 42.8004 56.4 41.9004 57.5 41.9004C58.6 41.9004 59.5 42.8004 59.5 43.9004Z" stroke="#162345" stroke-miterlimit="10"/>
<path d="M5 57.5C5 58.6 4.1 59.5 3 59.5C1.9 59.5 1 58.6 1 57.5C1 56.4 1.9 55.5 3 55.5C4.1 55.5 5 56.4 5 57.5Z" stroke="#162345" stroke-miterlimit="10"/>
<path d="M18.6001 57.5C18.6001 58.6 17.7001 59.5 16.6001 59.5C15.5001 59.5 14.6001 58.6 14.6001 57.5C14.6001 56.4 15.5001 55.5 16.6001 55.5C17.7001 55.5 18.6001 56.4 18.6001 57.5Z" stroke="#162345" stroke-miterlimit="10"/>
<path d="M32.3 57.5C32.3 58.6 31.4 59.5 30.3 59.5C29.2 59.5 28.3 58.6 28.3 57.5C28.3 56.4 29.2 55.5 30.3 55.5C31.4 55.5 32.3 56.4 32.3 57.5Z" stroke="#162345" stroke-miterlimit="10"/>
<path d="M45.8999 57.5C45.8999 58.6 44.9999 59.5 43.8999 59.5C42.7999 59.5 41.8999 58.6 41.8999 57.5C41.8999 56.4 42.7999 55.5 43.8999 55.5C44.9999 55.5 45.8999 56.4 45.8999 57.5Z" stroke="#162345" stroke-miterlimit="10"/>
<path d="M59.5 57.5C59.5 58.6 58.6 59.5 57.5 59.5C56.4 59.5 55.5 58.6 55.5 57.5C55.5 56.4 56.4 55.5 57.5 55.5C58.6 55.5 59.5 56.4 59.5 57.5Z" stroke="#162345" stroke-miterlimit="10"/>
</svg>
