<svg width="23" height="21" viewBox="0 0 23 21" fill="none" xmlns="http://www.w3.org/2000/svg">
<path d="M11.1102 19.0598C11.1102 20.1314 10.255 21 9.20012 21C8.1452 21 7.29004 20.1314 7.29004 19.0598C7.29004 17.9883 8.14521 17.1197 9.20014 17.1197C10.2551 17.1197 11.1102 17.9883 11.1102 19.0598ZM16.9342 17.1197C15.8793 17.1197 15.0241 17.9883 15.0241 19.0599C15.0241 20.1314 15.8793 21 16.9342 21C17.9891 21 18.8443 20.1314 18.8443 19.0599C18.8443 17.9883 17.9891 17.1197 16.9342 17.1197ZM22.8633 8.01186L20.513 15.1074C20.513 15.1074 20.3184 16.1605 19.3272 16.1605C18.3359 16.1605 8.642 16.1605 7.45903 16.1605C6.27605 16.1605 6.22634 14.8406 6.22634 14.8406C6.22634 14.8406 4.96526 5.33751 4.90277 4.7634C4.84028 4.18929 4.11744 3.76376 4.11744 3.76376L1.00732 2.2881C-0.695431 1.38366 0.0785442 -0.337221 1.00732 0.0580226C4.95106 1.94767 6.78304 2.87808 6.90092 3.62239C7.02021 4.36815 7.22755 6.16405 7.22755 6.16405V6.17559C7.25169 6.16838 7.26873 6.16405 7.26873 6.16405C7.26873 6.16405 19.3627 6.16405 21.8053 6.16405C23.5606 6.16405 22.8633 8.01476 22.8633 8.01186ZM19.4635 11.9628L19.4393 11.9643H7.93336L8.17052 13.8741H18.904L19.4635 11.9628ZM20.584 8.11141H7.45761L7.7104 10.1525C10.2283 10.1525 17.6017 10.1525 19.9904 10.1525L20.584 8.11141Z" fill="white"/>
</svg>
