<svg width="25" height="24" viewBox="0 0 25 24" fill="none" xmlns="http://www.w3.org/2000/svg">
<path d="M12.5087 0C6.15315 0 0.982422 5.17073 0.982422 11.5263C0.982422 17.8814 6.15315 23.0526 12.5087 23.0526C18.8639 23.0526 24.0351 17.8814 24.0351 11.5263C24.0351 5.17073 18.8648 0 12.5087 0ZM15.3752 11.9321H13.5C13.5 14.9281 13.5 18.6159 13.5 18.6159H10.7212C10.7212 18.6159 10.7212 14.9639 10.7212 11.9321H9.40036V9.56982H10.7212V8.04186C10.7212 6.94755 11.2412 5.23759 13.5255 5.23759L15.5846 5.24548V7.53858C15.5846 7.53858 14.3334 7.53858 14.0901 7.53858C13.8468 7.53858 13.5009 7.66022 13.5009 8.18208V9.57029H15.618L15.3752 11.9321Z" fill="#162345"/>
</svg>
