<svg width="196" height="67" fill="none" xmlns="http://www.w3.org/2000/svg"><path d="M.076 26.527h5.76c1.478 0 2.728.493 3.714 1.44.985.948 1.478 2.122 1.478 3.524 0 1.403-.493 2.577-1.478 3.525-.986.947-2.236 1.44-3.714 1.44H1.25v6.253H.076V26.527zm5.76 1.175H1.25v7.617h4.624c1.213 0 2.16-.341 2.918-1.061s1.137-1.63 1.137-2.729c0-1.099-.38-2.008-1.137-2.728-.758-.758-1.743-1.1-2.956-1.1zm16.977 10.27h-8.071l-1.971 4.737h-1.289l6.708-16.182h1.175l6.67 16.182h-1.251l-1.97-4.737zm-.454-1.137l-3.6-8.678-3.563 8.678h7.163zm4.282 4.737h.91c.075-.076.19-.152.303-.303.114-.152.379-.493.682-1.061.341-.569.606-1.213.871-1.895.266-.682.493-1.668.683-2.88a26.5 26.5 0 00.303-3.98v-4.926h9.588v15.007h2.084v4.623h-1.137V42.71h-13.15v3.448h-1.137v-4.585zm4.927-10.194c0 1.402-.076 2.69-.266 3.865a21.8 21.8 0 01-.644 2.918c-.265.758-.492 1.364-.758 1.895-.265.53-.492.91-.682 1.137l-.265.34h9.929v-13.83h-7.314v3.676zm26.679 11.331H57.11V28.725L46.347 42.71h-.91V26.527h1.175v13.984l10.725-13.984h.91V42.71zM76.21 28.725c1.591 1.63 2.387 3.562 2.387 5.874s-.796 4.282-2.388 5.874c-1.591 1.63-3.524 2.425-5.798 2.425s-4.206-.796-5.798-2.425c-1.592-1.63-2.387-3.562-2.387-5.874s.795-4.282 2.387-5.874c1.592-1.63 3.524-2.425 5.798-2.425 2.236 0 4.207.834 5.798 2.425zm-.834 10.99c1.364-1.364 2.046-3.07 2.046-5.078 0-2.009-.682-3.714-2.046-5.078-1.365-1.364-3.032-2.085-5.003-2.085-1.97 0-3.638.683-5.002 2.085-1.364 1.364-2.046 3.07-2.046 5.078 0 2.008.682 3.714 2.046 5.078 1.364 1.364 3.032 2.084 5.002 2.084 1.97 0 3.638-.72 5.003-2.084z" fill="#009FE3"/><path d="M92.998 28.08c-1.1-1.022-2.464-1.553-4.131-1.553h-6.821V42.71h3.486v-5.306h3.335c1.667 0 3.032-.53 4.13-1.553 1.1-1.024 1.63-2.35 1.63-3.866s-.568-2.842-1.63-3.903zm-2.54 5.534c-.454.454-1.023.682-1.743.682h-3.22v-4.623h3.22c.682 0 1.251.227 1.744.682.454.454.682.985.682 1.63.038.643-.228 1.174-.682 1.629zm10.384-7.087L94.476 42.71h3.713l1.403-3.828h6.253l1.402 3.828h3.714l-6.405-16.182h-3.714zm-.113 9.36l1.97-5.305 1.971 5.305h-3.941zm22.889-9.36h3.449V42.71h-3.449v-6.594h-6.935v6.594h-3.487V26.527h3.487v6.48h6.935v-6.48zm20.199 0h-11.218v4.964c0 1.062-.075 2.085-.265 3.07-.189.947-.379 1.743-.606 2.274a11.987 11.987 0 01-.758 1.554c-.303.454-.493.758-.607.91-.113.113-.189.227-.265.302h-.909v6.48h3.448v-3.334h9.702v3.334h3.486v-6.48h-1.97V26.527h-.038zm-3.487 13.074h-6.821l.265-.265a6.21 6.21 0 00.607-.91c.265-.416.492-.947.72-1.515.227-.569.454-1.365.644-2.312.189-.947.265-1.97.265-3.032V29.71h4.282v9.891h.038zm11.559 0h8.678v3.108H148.44V26.527h11.9v3.108h-8.413v3.22h6.593v3.146h-6.593v3.6h-.038zm23.799-4.168a4.905 4.905 0 00-.796-.72c-.303-.228-.531-.38-.645-.417-.113-.038-.227-.114-.303-.114l.19-.114a2.99 2.99 0 00.455-.378 9.81 9.81 0 00.568-.645 3.16 3.16 0 00.455-.947c.113-.38.189-.796.189-1.213 0-1.137-.492-2.122-1.44-2.994-.947-.871-2.16-1.288-3.638-1.288h-6.935v16.181h7.314c1.592 0 2.918-.454 3.941-1.402 1.024-.947 1.554-2.046 1.554-3.334 0-.531-.114-1.024-.303-1.478-.19-.455-.379-.872-.606-1.137zm-8.451-6.026h3.221c.568 0 1.023.152 1.364.455.341.303.493.72.493 1.25 0 .531-.152.948-.493 1.251-.341.303-.796.455-1.364.455h-3.221v-3.41zm5.267 9.815c-.417.417-.947.607-1.591.607h-3.676V35.66h3.676c.644 0 1.136.19 1.591.606.417.417.644.91.644 1.478 0 .569-.227 1.1-.644 1.478zm15.879-12.695h3.714l-5.647 12.127c-.644 1.402-1.44 2.463-2.349 3.183-.91.72-2.009 1.1-3.335 1.1-.304 0-.607-.039-.91-.077-.303-.075-.53-.113-.682-.19l-.227-.075v-2.994c.379.152.833.228 1.402.228 1.175 0 2.046-.53 2.653-1.63l.454-.796-5.836-10.876h3.676l3.828 7.617 3.259-7.617zM82.008 19.478v-5.76a1.82 1.82 0 011.819-1.819c1.023 0 1.819.796 1.819 1.82v5.76a1.82 1.82 0 01-3.638 0zm9.209 0V7.92a1.82 1.82 0 011.819-1.819c1.023 0 1.819.796 1.819 1.82v11.558a1.82 1.82 0 01-3.638 0zm9.17 0V1.82A1.82 1.82 0 01102.206 0c1.024 0 1.82.796 1.82 1.819v17.697a1.82 1.82 0 01-1.82 1.82c-1.023 0-1.819-.872-1.819-1.857zm12.809-12.695v12.695a1.82 1.82 0 01-1.819 1.82 1.796 1.796 0 01-1.819-1.82V6.784a1.82 1.82 0 013.638 0zm5.609 12.695v-8.83a1.82 1.82 0 011.819-1.818c1.023 0 1.819.796 1.819 1.819v8.83a1.82 1.82 0 01-3.638 0zm10.99 1.82a1.82 1.82 0 01-1.819-1.82v-6.366a1.82 1.82 0 011.819-1.819c1.023 0 1.819.796 1.819 1.819v6.367a1.82 1.82 0 01-1.819 1.819zm7.428-1.82v-2.614a1.82 1.82 0 011.819-1.82c1.023 0 1.819.796 1.819 1.82v2.614a1.82 1.82 0 01-3.638 0zm10.99 1.82a1.819 1.819 0 01-1.819-1.82v-6.366a1.82 1.82 0 011.819-1.819c1.023 0 1.819.796 1.819 1.819v6.367c-.038.985-.834 1.819-1.819 1.819zm7.389-1.82V7.92a1.82 1.82 0 011.819-1.819c1.024 0 1.82.796 1.82 1.82v11.558a1.82 1.82 0 01-3.639 0zm9.209 0v-8.83a1.82 1.82 0 011.819-1.818c1.024 0 1.819.796 1.819 1.819v8.83a1.819 1.819 0 11-3.638 0zm12.809-7.048v7.049a1.82 1.82 0 01-1.819 1.819 1.796 1.796 0 01-1.819-1.82V12.43a1.82 1.82 0 013.638 0zm5.571 7.049V14.93a1.82 1.82 0 011.819-1.819c1.023 0 1.819.796 1.819 1.819v4.548a1.82 1.82 0 01-3.638 0zm12.809 0a1.82 1.82 0 01-1.819 1.819c-.985 0-1.781-.796-1.781-1.82 0-1.023.796-1.819 1.781-1.819 1.023.038 1.819.834 1.819 1.82zM3.6 53.358v8.83a1.82 1.82 0 01-1.819 1.818A1.755 1.755 0 010 62.226v-8.83a1.82 1.82 0 011.819-1.82c1.023 0 1.781.796 1.781 1.782zm9.209 0v5.38a1.82 1.82 0 01-1.82 1.82 1.796 1.796 0 01-1.818-1.82v-5.38a1.82 1.82 0 013.638 0zm9.209 0v4.13a1.82 1.82 0 01-1.82 1.82 1.796 1.796 0 01-1.818-1.82v-4.13a1.82 1.82 0 013.638 0zm9.17 0v6.025a1.82 1.82 0 01-1.818 1.819 1.796 1.796 0 01-1.82-1.82v-6.024a1.82 1.82 0 013.639 0zm9.21 0v8.83a1.82 1.82 0 01-1.82 1.818 1.796 1.796 0 01-1.819-1.819v-8.83a1.82 1.82 0 013.639 0zm9.208 0v11.86c0 .986-.796 1.782-1.819 1.782s-1.819-.796-1.819-1.781V53.358a1.82 1.82 0 013.638 0zm9.21 0V65.18A1.82 1.82 0 0156.995 67a1.796 1.796 0 01-1.819-1.819V53.358a1.82 1.82 0 013.638 0zm9.17 0v8.83a1.82 1.82 0 01-1.819 1.818 1.796 1.796 0 01-1.819-1.819v-8.83a1.82 1.82 0 013.638 0zm9.209 0v6.025a1.82 1.82 0 01-1.82 1.819 1.796 1.796 0 01-1.818-1.82v-6.024a1.82 1.82 0 013.638 0z" fill="url(#paint0_linear)"/><path d="M28.384 12.278h1.592v9.02h-1.933v-6.594H26.49V13.49a4.43 4.43 0 00.757-.19c.228-.075.417-.189.531-.303l.341-.34c.076-.114.152-.19.19-.266l.075-.114zm10.081 1.099c.758.872 1.137 2.009 1.137 3.41 0 1.403-.38 2.54-1.137 3.412-.758.871-1.668 1.288-2.729 1.288-1.06 0-2.008-.455-2.766-1.288-.758-.872-1.137-2.009-1.137-3.411 0-1.402.379-2.54 1.137-3.41.758-.872 1.667-1.29 2.728-1.29 1.062 0 2.009.418 2.767 1.29zm-4.093 1.213c-.379.53-.568 1.25-.568 2.198 0 .947.19 1.667.568 2.198.379.53.834.758 1.364.758.53 0 .986-.265 1.365-.758s.568-1.25.568-2.198c0-.947-.19-1.668-.568-2.198-.38-.53-.834-.758-1.365-.758-.53 0-.985.227-1.364.758zm11.218 1.933c.037 0 .113.038.189.075.075.038.19.114.379.228.19.113.34.265.492.417.152.151.266.379.38.644a2.3 2.3 0 01.189.91c0 .72-.303 1.364-.91 1.894-.606.53-1.44.796-2.425.796-.417 0-.834-.038-1.25-.152a7.239 7.239 0 01-.986-.34c-.265-.114-.455-.266-.682-.418-.19-.151-.341-.265-.417-.379l-.114-.151 1.175-1.213c0 .038.038.076.076.114.038.038.114.114.265.227.152.114.265.228.417.303.152.076.341.152.569.228.227.076.454.114.72.114.492 0 .871-.114 1.136-.341.266-.228.417-.493.417-.834 0-.341-.113-.607-.379-.834-.265-.227-.606-.341-1.099-.341h-.985v-1.592h.91c.379 0 .682-.113.909-.303.227-.19.341-.454.341-.796 0-.303-.114-.53-.341-.758-.227-.189-.53-.303-.91-.303a1.8 1.8 0 00-.909.228c-.303.151-.493.265-.606.417l-.19.189-1.175-1.175c.038-.038.076-.075.114-.151.038-.076.19-.152.379-.341.19-.152.379-.304.606-.417.228-.114.493-.228.872-.303.379-.076.72-.152 1.137-.152.91 0 1.63.227 2.198.72.568.493.834 1.061.834 1.781 0 .265-.038.493-.152.72a2.01 2.01 0 01-.303.569c-.114.151-.265.265-.38.379-.113.113-.227.151-.34.227l-.152.114zm2.993 4.585a.949.949 0 01-.303-.682.95.95 0 01.303-.682c.19-.19.455-.303.72-.303.266 0 .53.113.72.303a.95.95 0 01.303.682.949.949 0 01-.303.682c-.19.19-.455.303-.72.303-.265 0-.53-.114-.72-.303zM57.489 18h1.023v1.668h-1.023v1.592h-1.933v-1.592h-4.244v-1.933l3.94-5.495h2.237V18zm-1.933 0v-3.486l-2.463 3.487h2.463zm10.156-2.842v1.554H64.31v4.585h-1.743v-4.585h-.91v-1.554h.91v-.833c0-1.478.682-2.198 2.008-2.198a2.869 2.869 0 011.023.151l.152.038v1.478a1.633 1.633 0 00-.644-.114.93.93 0 00-.569.19c-.151.152-.227.303-.227.493v.758h1.402v.037zm9.02 6.139v-3.486c0-.417-.114-.72-.303-.947a.954.954 0 00-.758-.341 1.02 1.02 0 00-.834.379c-.228.265-.341.644-.341 1.099v3.296h-1.743v-3.486c0-.417-.114-.72-.304-.947a.954.954 0 00-.757-.341 1.02 1.02 0 00-.834.379c-.228.265-.341.644-.341 1.099v3.296h-1.744V14.97h1.744v.758c.038-.076.113-.152.19-.266.075-.113.264-.227.568-.416.303-.152.606-.266.91-.266.264 0 .492.038.681.114.228.076.38.152.53.265.152.114.228.19.342.303.076.114.151.19.19.266l.037.114c0-.038.038-.076.076-.114.038-.038.114-.152.265-.266.152-.113.266-.227.417-.34.152-.114.341-.19.606-.266.228-.076.493-.114.758-.114.683 0 1.251.228 1.668.72.417.455.606 1.175.606 2.085v3.676h-1.63v.075z" fill="#009FE3"/><defs><linearGradient id="paint0_linear" x1="0" y1="33.506" x2="196.01" y2="33.506" gradientUnits="userSpaceOnUse"><stop stop-color="#009FE3"/><stop offset=".3" stop-color="#164194"/><stop offset=".55" stop-color="#E6007E"/><stop offset=".803" stop-color="#E94E1B"/><stop offset="1" stop-color="#F9B233"/></linearGradient></defs></svg>