<svg width="471" height="225" fill="none" xmlns="http://www.w3.org/2000/svg"><g opacity=".05" fill="#000"><path fill-rule="evenodd" clip-rule="evenodd" d="M128.053 30.36C173.655 19.133 223.255 8.419 287.148 0c-2.042 6.548-4.084 12.246-8.593 19.134-76.825 9.61-120.299 19.05-156.117 27.298-26.374 69.393-75.719 166.85-111.962 178.245-6.04 1.191-9.273-.935-10.209-6.037-2.552-23.387 13.527-53.491 34.03-77.558 6.467-3.826 12.337-4.252 17.442-.51-26.885 33.421-41.263 59.699-42.114 78.068 21.185-1.361 82.95-127.221 91.799-167.105-31.479 7.738-60.575 18.454-88.65 29.339 18.546 5.442 33.265 9.27 48.068 12.076-2.978 6.122-7.487 10.715-13.102 14.201C33.107 99.412 21.196 91.844 8.01 83.34c-4.084-2.551-4.594-12.331.85-14.117 29.267-13.606 60.406-24.747 98.265-33.846 1.702-4.762 3.403-9.61 5.105-14.372 6.891-2.211 13.867-4.337 20.759-6.548-1.702 5.272-3.318 10.63-4.935 15.902z"/><path fill-rule="evenodd" clip-rule="evenodd" d="M124.31 149.246c-5.87-6.293 3.233-54.937 12.591-65.652-5.955-3.656-11.06-4.337-15.654-2.976-10.635 10.8-15.909 43.456-14.123 62.845.426 2.721.766 3.231 1.702 4.847 3.573 4.422 7.487 5.783 14.293 5.698 11.74-.425 29.522-33.676 29.096-58.678 3.574-4.422 7.147-8.93 10.72-13.352-8.593 40.735-16.76 82.32-26.119 121.183 6.381.171 10.465-3.656 14.719-8.334 1.956-2.041 22.46-76.621 37.434-106.555-.256 12.245-.511 22.025-.766 34.186-.681 6.208 6.211 8.164 11.23 6.973 2.297-.34 14.293-19.729 22.376-32.57.595-.51.85.17.765.51-2.127 7.909-3.913 20.495-.425 25.852 1.957 3.572 5.445 6.463 13.867 6.974 9.529-.085 21.695-13.777 25.609-30.36 3.063-1.7 6.21-3.912 9.954-9.865.851-1.275 1.616-1.7 1.531.68-.17 10.971-.595 18.369-.425 28.999.085 2.722.34 6.038 2.552 6.294 3.148.595 6.721.51 9.954.51 1.787-23.897 23.056-58.933 29.011-58.848.936.68-1.02 7.738-3.658 13.096-4.084 8.079-11.06 16.753-15.314 22.791 6.211 9.95 16.08 18.624 31.394 26.107 1.446-.425 14.123-49.323 15.399-48.133.851.596-3.148 22.791-.936 32.571 2.127 3.572 5.53 4.677 11.656 4.167 3.062-1.191 16.59-24.577 24.076-47.453.171-.425.681-.595.766.17.766 14.542 1.276 28.744 4.849 44.476 5.786 1.361 10.295.256 14.549-1.19-2.042-6.463-3.659-13.522-4.594-22.11 3.998-10.97 7.912-19.475 13.187-26.874.425-.34.85 0 .765.34-2.892 11.906-4.594 21.856-4.509 32.061.085 2.976 5.19 4.677 10.465 3.657 8.422-7.314 16.249-19.05 24.927-34.102.511-.34.596.34.596.68-1.702 12.842-1.106 24.918 2.042 35.888 5.445.595 10.549-.255 15.399-2.636-6.126-15.478-4.169-32.316-3.488-48.899-2.978-2.04-8.934-2.21-10.89-1.105-9.699 19.814-17.782 34.101-24.673 41.755-.936.68-1.276 0-1.191-1.02 2.808-15.053 6.551-27.894 11.571-40.65-4.084-2.041-12.081-2.637-14.208-.68-7.317 9.95-13.272 18.623-20.419 32.4-.51.34-1.021.595-1.446-.085l-.255-31.975c-3.233-1.361-6.551-1.361-9.784-.85-8.338 24.661-17.016 46.942-26.97 58.082-.34.255-.936.255-.936-.51 2.383-23.727 6.636-36.483 10.72-51.11-4.339-1.36-9.529-1.956-12.166-1.956-6.296 7.569-15.484 33.506-26.459 59.104-7.146-3.147-12.591-8.675-17.781-14.202 9.784-11.65 22.29-28.489 20.844-38.609-.766-3.401-5.105-7.313-10.124-4.847-17.271 13.436-24.418 32.486-31.564 51.365-.425.17-.766-.085-.766-1.106 1.872-17.263 3.573-34.441 3.233-40.99-3.998-.085-8.167-.085-12.336 1.361-2.723 1.106-3.063 2.721-3.148 4.762-.085 3.912-.255 7.824-.34 11.821-3.063 6.293-7.147 9.1-11.23 11.65-1.021-1.275-2.212-1.955-3.489-2.466-4.168.51-8.422 1.106-12.421 3.657.681 2.211 1.702 4.167 3.233 7.654-1.021 10.715-5.87 18.114-12.336 23.471-.681.34-1.276.425-1.787-.255-3.573-19.134 6.126-39.884 10.465-50.6-3.148-3.656-9.359-4.761-12.166-3.06-3.659-.086-20.334 31.805-30.883 48.643-.256.34-.766.255-.766-.256 1.616-14.542 3.743-29.509 2.467-43.71-4.509-2.382-7.912-2.722-11.23-1.191-8.338 6.123-22.29 43.966-29.437 67.352-.51.936-1.106.34-.936-.34 4.68-23.386 10.89-47.708 17.356-72.455.34-1.19.085-2.04-.51-2.466-2.808-1.87-11.316-5.017-13.102-.85-3.744 8.759-7.402 14.542-13.613 20.325-1.276-.766-2.722-1.531-5.274-1.871-2.553-.426-8.423.765-7.828 5.357 2.042 3.062 3.233 2.977 3.659 8.249 1.871 21.175-11.316 47.028-18.547 49.239zM434.332 45.327c-4.424-10.205 6.636-21.77 30.372-44.647 1.787 5.443 3.659 10.886 5.445 16.328-11.91 9.44-23.906 18.88-35.817 28.319z"/><path d="M311.395 180.201h18.292v10.8h-30.968v-48.133h12.676v37.333zm26.629 10.8h12.677v-48.133h-12.677v48.133zm46.708-26.533c-.936 2.892-2.297 7.569-2.808 11.141h-.255c-.596-3.317-1.957-8.334-2.808-11.056l-6.891-21.77h-13.527l17.27 48.133h11.231l17.866-48.133h-13.102l-6.976 21.685zm40.156 15.733v-8.929h16.931v-10.12h-16.931v-7.484h17.611v-10.8h-30.202v48.133h30.968v-10.8h-18.377z"/></g></svg>