<svg width="24" height="24" fill="none" xmlns="http://www.w3.org/2000/svg"><path d="M17.25 24a6.686 6.686 0 01-2.295-.41 24.462 24.462 0 01-8.883-5.662A24.46 24.46 0 01.41 9.045a6.638 6.638 0 01-.338-3.263 6.795 6.795 0 011.156-2.897A6.823 6.823 0 013.57.8a6.69 6.69 0 013.2-.8.75.75 0 01.733.593l1.178 5.493a.75.75 0 01-.203.688L6.466 8.785a19.741 19.741 0 008.75 8.75l2.01-2.012a.75.75 0 01.688-.203l5.494 1.177a.75.75 0 01.592.733 6.683 6.683 0 01-.799 3.2 6.796 6.796 0 01-4.983 3.499 6.662 6.662 0 01-.969.071zM6.17 1.533a5.191 5.191 0 00-3.714 2.213 5.167 5.167 0 00-.636 4.787A22.747 22.747 0 0015.467 22.18a5.167 5.167 0 004.787-.636 5.194 5.194 0 002.214-3.714l-4.47-.958-2.1 2.1a.75.75 0 01-.85.15A21.236 21.236 0 014.88 8.951a.75.75 0 01.149-.85l2.1-2.1-.957-4.47z" fill="#fff"/></svg>