<svg width="140" height="67" fill="none" xmlns="http://www.w3.org/2000/svg"><path fill-rule="evenodd" clip-rule="evenodd" d="M38.131 9.04C51.711 5.698 66.481 2.507 85.506 0c-.608 1.95-1.216 3.647-2.559 5.698-22.876 2.861-35.822 5.672-46.488 8.128C28.606 34.49 13.912 63.511 3.12 66.904c-1.798.355-2.76-.279-3.04-1.798-.76-6.964 4.029-15.928 10.134-23.095 1.926-1.14 3.674-1.266 5.194-.152C7.4 51.811 3.12 59.636 2.867 65.106c6.307-.405 24.7-37.883 27.335-49.76-9.374 2.304-18.038 5.495-26.398 8.736 5.522 1.621 9.905 2.76 14.313 3.596-.886 1.824-2.229 3.191-3.901 4.23-4.358-2.305-7.904-4.559-11.831-7.091-1.216-.76-1.368-3.672.253-4.204 8.715-4.052 17.988-7.369 29.261-10.079.507-1.418 1.014-2.861 1.52-4.28 2.052-.658 4.13-1.29 6.182-1.949-.507 1.57-.988 3.165-1.47 4.735z" fill="#000"/><path fill-rule="evenodd" clip-rule="evenodd" d="M37.017 44.442c-1.748-1.874.963-16.359 3.75-19.55-1.774-1.088-3.294-1.291-4.662-.886-3.167 3.216-4.738 12.94-4.206 18.714.127.81.228.962.507 1.444 1.064 1.316 2.23 1.721 4.256 1.696 3.496-.127 8.791-10.028 8.665-17.473 1.064-1.317 2.128-2.659 3.192-3.976-2.56 12.13-4.991 24.513-7.778 36.086 1.9.05 3.116-1.089 4.383-2.482.582-.608 6.688-22.816 11.147-31.73-.076 3.647-.152 6.559-.228 10.18-.203 1.849 1.85 2.431 3.344 2.077.684-.102 4.256-5.875 6.663-9.7.177-.151.253.052.228.153-.634 2.355-1.166 6.103-.127 7.698.583 1.064 1.621 1.925 4.13 2.077 2.837-.026 6.46-4.103 7.625-9.04.912-.507 1.85-1.166 2.964-2.938.254-.38.482-.507.456.202-.05 3.267-.177 5.47-.126 8.636.025.81.1 1.797.76 1.873.937.178 2.001.152 2.964.152.532-7.115 6.865-17.549 8.639-17.523.278.202-.304 2.304-1.09 3.9-1.216 2.405-3.293 4.988-4.56 6.786 1.85 2.963 4.788 5.546 9.348 7.774.431-.126 4.206-14.687 4.586-14.333.253.178-.937 6.787-.279 9.7.634 1.063 1.647 1.392 3.471 1.24.912-.355 4.94-7.318 7.17-14.13.05-.127.202-.178.228.05.228 4.33.38 8.56 1.444 13.244 1.722.406 3.065.076 4.332-.354a33.316 33.316 0 01-1.368-6.584c1.19-3.267 2.356-5.8 3.927-8.002.126-.102.253 0 .228.101-.862 3.545-1.369 6.508-1.343 9.547.025.886 1.545 1.393 3.116 1.089 2.508-2.178 4.839-5.673 7.423-10.155.152-.101.177.101.177.203-.507 3.824-.329 7.42.608 10.686 1.622.177 3.142-.076 4.586-.785-1.824-4.609-1.242-9.623-1.039-14.56-.887-.608-2.66-.66-3.243-.33-2.888 5.9-5.295 10.155-7.347 12.434-.278.202-.38 0-.354-.304.836-4.482 1.95-8.306 3.445-12.105-1.216-.607-3.597-.785-4.231-.202-2.178 2.963-3.952 5.546-6.08 9.648-.152.101-.304.177-.431-.025l-.076-9.522c-.962-.405-1.95-.405-2.913-.253-2.483 7.344-5.067 13.978-8.031 17.296-.101.076-.279.076-.279-.152.71-7.066 1.976-10.864 3.192-15.22-1.292-.405-2.837-.582-3.622-.582-1.875 2.254-4.611 9.977-7.88 17.6-2.127-.937-3.749-2.583-5.294-4.23 2.913-3.469 6.638-8.483 6.207-11.496-.228-1.013-1.52-2.178-3.015-1.444-5.143 4.002-7.27 9.674-9.399 15.296-.127.05-.228-.026-.228-.33.557-5.14 1.064-10.255.963-12.205-1.191-.026-2.432-.026-3.674.405-.81.33-.912.81-.937 1.418-.025 1.165-.076 2.33-.101 3.52-.912 1.874-2.129 2.71-3.344 3.47-.304-.38-.66-.583-1.04-.735-1.24.152-2.507.329-3.698 1.089.203.658.507 1.24.963 2.279-.304 3.19-1.748 5.394-3.674 6.989-.202.101-.38.127-.532-.076-1.064-5.698 1.824-11.877 3.116-15.067-.937-1.09-2.786-1.418-3.623-.912-1.089-.025-6.054 9.471-9.196 14.485-.076.101-.228.076-.228-.076.482-4.33 1.115-8.787.735-13.016-1.343-.71-2.356-.81-3.344-.355-2.483 1.824-6.638 13.092-8.766 20.056-.152.279-.33.102-.278-.101 1.393-6.964 3.242-14.206 5.168-21.575.101-.355.025-.608-.152-.735-.836-.557-3.37-1.494-3.902-.253-1.114 2.608-2.204 4.33-4.053 6.052a3.73 3.73 0 00-1.57-.557c-.76-.126-2.509.228-2.332 1.595.608.912.963.887 1.09 2.457.557 6.305-3.37 14.004-5.523 14.662zm92.317-30.945c-1.317-3.038 1.976-6.482 9.045-13.294.532 1.62 1.089 3.241 1.621 4.862-3.547 2.81-7.119 5.622-10.666 8.432z" fill="#000"/><path d="M92.726 53.66h5.447v3.216h-9.221V42.543h3.774V53.66zm7.93 3.216h3.775V42.543h-3.775v14.333zm13.908-7.901c-.278.861-.684 2.254-.836 3.317h-.076c-.177-.987-.582-2.481-.836-3.292l-2.052-6.482h-4.028l5.143 14.332h3.344l5.32-14.332h-3.901l-2.078 6.457zm11.958 4.685V51h5.042v-3.013h-5.042V45.76h5.244v-3.216h-8.993v14.333h9.221V53.66h-5.472z" fill="#D60B52"/></svg>