<svg width="385" height="191" fill="none" xmlns="http://www.w3.org/2000/svg"><path d="M53.03 79.395c-10.2-1.935-20.367-4.483-32.56-7.966C40.218 63.85 60.599 56.54 82.376 50.976c-4.472 16.654-17.671 47.298-32.042 74.722-7.656 14.611-15.594 28.21-22.646 38.2-3.53 5.001-6.798 9.037-9.66 11.836-1.43 1.399-2.718 2.447-3.848 3.149l-.199.122c.895-6.357 3.704-13.976 8.508-22.853 5.57-10.291 13.741-22.127 24.447-35.441l1.31-1.63-1.686-1.236c-2.393-1.755-5.03-2.564-7.828-2.452-2.759.111-5.548 1.11-8.321 2.752l-.288.17-.216.254c-8.29 9.734-15.713 20.718-20.813 31.68-5.087 10.933-7.945 22.017-6.869 31.88l.008.072.013.071c.437 2.383 1.486 4.44 3.48 5.652 1.947 1.182 4.382 1.304 7.04.78l.107-.021.105-.033c7.806-2.455 16.013-9.405 24.172-18.927 8.212-9.583 16.59-22.03 24.685-35.87 16-27.356 31.015-60.363 41.573-87.998 28.4-6.53 62.999-13.979 123.613-21.563l.919-.115.507-.774c3.754-5.737 5.452-10.498 7.108-15.808l.931-2.987-3.102.41c-49.598 6.537-88.449 14.802-124.032 23.49a634.76 634.76 0 012.908-9.328l1.196-3.71-3.711 1.191c-2.747.882-5.513 1.747-8.287 2.615l-.004.001c-2.77.867-5.548 1.736-8.31 2.623l-.94.302-.333.93c-.681 1.906-1.362 3.83-2.042 5.75l-.001.003-.001.004c-.56 1.579-1.117 3.155-1.675 4.722-29.89 7.253-54.584 16.113-77.812 26.909-3.28 1.149-4.413 4.53-4.452 7.247-.02 1.446.244 2.931.784 4.242.531 1.29 1.39 2.552 2.66 3.35 10.546 6.804 20.132 12.898 31.913 19.13l1.015.537.975-.606c4.765-2.96 8.653-6.902 11.222-12.186l1.143-2.352-2.57-.487z" fill="#000" stroke="#fff" stroke-width="4"/><path d="M119.529 115.017c4.675-9.17 8.213-20.808 8.211-31.054.964-1.196 1.929-2.4 2.892-3.602-1.174 5.623-2.341 11.256-3.507 16.886-5.049 24.38-10.085 48.695-15.651 71.815l-.578 2.401 2.469.066c6.087.162 9.905-3.583 13.298-7.314a3.3 3.3 0 00.517-.803l.003-.006c.107-.224.218-.49.331-.776.226-.577.5-1.349.814-2.275.63-1.858 1.452-4.436 2.424-7.534.593-1.891 1.243-3.978 1.942-6.222a2375.085 2375.085 0 015.465-17.382c4.536-14.184 9.834-29.962 14.752-41.816l-.095 4.094c-.099 4.273-.198 8.549-.299 13.348-.158 1.6.159 3.044.896 4.261.74 1.221 1.826 2.088 2.999 2.666 2.282 1.125 5.127 1.284 7.496.733.577-.116 1.013-.424 1.23-.589a7.41 7.41 0 00.833-.761c.528-.551 1.132-1.289 1.778-2.137 1.301-1.708 2.903-4.038 4.628-6.645 1.912-2.892 4.002-6.168 6.034-9.386-.115.97-.204 1.943-.259 2.904-.115 2.005-.088 4.003.167 5.819.249 1.767.733 3.495 1.625 4.896.926 1.67 2.251 3.236 4.336 4.422 2.08 1.182 4.784 1.912 8.352 2.128l.07.004h.069c4.678-.042 9.516-3.333 13.425-7.893 3.82-4.457 7.069-10.474 8.774-17.085 1.721-1.023 3.481-2.336 5.369-4.592-.032 1.373-.067 2.693-.101 3.985-.13 4.96-.25 9.52-.159 15.181v.015l.001.015c.033 1.07.1 2.518.462 3.756.344 1.177 1.203 2.913 3.267 3.193 2.426.45 5.114.441 7.416.433l.856-.002h1.856l.138-1.851c.397-5.309 2.065-11.409 4.368-17.41 5.213 8.33 13.423 15.479 25.895 21.575l.698.341.745-.219c.533-.157.853-.485.957-.597.14-.15.241-.297.302-.395.127-.199.232-.416.316-.601.173-.383.364-.883.565-1.449.405-1.144.911-2.731 1.477-4.587 1.019-3.341 2.263-7.644 3.522-11.996l.426-1.476c.334-1.153.666-2.302.995-3.43-.188 3.88-.148 7.777.491 10.604l.07.31.163.272c1.072 1.802 2.538 3.062 4.519 3.756 1.893.663 4.125.761 6.687.547l.288-.024.27-.105c.493-.191.894-.513 1.168-.76.305-.274.613-.605.917-.964.611-.719 1.306-1.669 2.054-2.789 1.5-2.246 3.304-5.308 5.204-8.889a177.957 177.957 0 008.24-17.914c.509 8.875 1.275 17.902 3.488 27.65l.277 1.218 1.216.286c5.16 1.214 9.191.2 12.736-1.006l1.853-.63-.589-1.866c-1.559-4.935-2.802-10.315-3.542-16.84 1.648-4.492 3.271-8.423 5.026-11.96-1.007 5.572-1.558 10.81-1.513 16.153v.02l.001.02c.071 2.482 2.181 3.878 3.976 4.496 1.936.667 4.372.8 6.772.336l.526-.102.405-.351c5.682-4.936 10.962-12.21 16.45-21.192-.379 7.81.368 15.258 2.361 22.206l.371 1.29 1.334.147c4.717.516 9.183-.224 13.415-2.302l1.657-.814-.679-1.717c-4.059-10.259-3.499-21.281-2.913-32.8a556.4 556.4 0 00.262-5.501l.045-1.106-.913-.625c-1.606-1.102-3.795-1.592-5.64-1.731a14.233 14.233 0 00-2.756.046c-.808.099-1.702.298-2.428.708l-.54.306-.272.556c-6.088 12.44-11.306 21.997-15.828 28.383 2.076-9.63 4.706-18.19 8.055-26.703l.67-1.703-1.637-.818c-1.953-.977-4.658-1.542-7.048-1.68-1.212-.069-2.43-.034-3.508.147-1.005.17-2.196.515-3.055 1.305l-.143.132-.115.156c-4.993 6.793-9.224 12.882-13.92 21.375l-.159-19.934-.01-1.317-1.214-.51c-3.058-1.288-6.128-1.253-8.912-.813l-1.196.188-.387 1.147c-3.328 9.848-6.707 19.168-10.233 27.119-2.477 5.585-4.995 10.422-7.575 14.27 1.678-13.23 4.139-21.866 6.669-30.745a739.3 739.3 0 001.216-4.296l.521-1.866-1.849-.58c-3.679-1.154-8.032-1.656-10.328-1.656h-.938l-.6.721c-1.42 1.707-2.909 4.321-4.453 7.458-1.561 3.172-3.244 7.018-5.031 11.28-1.473 3.516-3.008 7.295-4.61 11.236-2.068 5.091-4.246 10.452-6.541 15.863-3.954-2.147-7.263-5.294-10.535-8.721 3.649-4.422 7.655-9.651 10.744-14.788 1.707-2.84 3.165-5.7 4.123-8.42.95-2.696 1.463-5.405 1.11-7.878l-.012-.078-.017-.078c-.432-1.919-1.802-3.828-3.688-4.97-1.973-1.196-4.567-1.578-7.242-.264l-.184.091-.162.126c-10.736 8.355-16.726 19.32-21.448 30.613.289-2.903.551-5.69.77-8.269.491-5.795.778-10.676.634-13.454l-.097-1.856-1.858-.04c-3.194-.067-6.856-.087-10.564 1.199l-.049.017-.048.02c-1.392.565-2.426 1.371-3.052 2.517-.586 1.072-.676 2.209-.711 3.062l-.001.02-.001.02c-.033 1.53-.083 3.062-.133 4.614l-.002.067c-.046 1.426-.093 2.868-.127 4.327-1.859 3.637-4.177 5.583-6.732 7.272-.756-.592-1.546-.986-2.307-1.29l-.476-.19-.509.062c-3.319.406-7.144.913-10.767 3.225l-1.283.819.447 1.455c.428 1.388 1.028 2.71 1.767 4.336.217.478.446.982.686 1.521-.77 6.883-3.664 11.848-7.627 15.611-.758-6.538.343-13.317 2.113-19.582 1.63-5.77 3.781-10.962 5.476-15.051.361-.87.701-1.69 1.011-2.456l.457-1.13-.795-.925c-1.601-1.86-3.89-2.99-6.041-3.478-1.936-.44-4.157-.441-5.867.416-.514.131-.919.39-1.169.569-.418.299-.82.686-1.195 1.093-.756.82-1.612 1.954-2.526 3.275-1.838 2.656-4.074 6.313-6.453 10.344-1.733 2.935-3.543 6.07-5.346 9.192-1.733 3.001-3.46 5.992-5.107 8.785 1.04-9.214 1.929-18.684 1.112-27.778l-.097-1.082-.961-.508c-3.937-2.08-7.341-2.574-10.753-1l-.184.085-.162.12c-1.084.796-2.132 2.002-3.134 3.401-1.019 1.423-2.068 3.158-3.128 5.11-2.12 3.908-4.349 8.808-6.531 14.1a286.123 286.123 0 00-2.218 5.547c2.42-9.986 5.038-20.128 7.715-30.376.39-1.393.247-3.108-1.176-4.125l-.026-.019-.027-.018c-1.352-.9-3.868-2.006-6.291-2.454-1.213-.224-2.58-.319-3.839-.017-1.325.317-2.631 1.114-3.296 2.667l-.001.002c-2.697 6.313-5.281 10.525-9.381 14.593-.92-.431-2.054-.815-3.591-1.022-1.414-.227-3.495-.018-5.23.812-.902.43-1.831 1.087-2.491 2.066-.687 1.019-.995 2.259-.816 3.643l.06.464.26.389a21.07 21.07 0 001.188 1.595l.014.018c.338.421.531.667.69.934.262.443.545 1.135.704 3.103v.008l.001.007c.711 8.041-1.443 17.109-4.536 24.431-1.541 3.647-3.285 6.788-4.955 9.091-.836 1.153-1.629 2.061-2.341 2.712a9.482 9.482 0 01-.113.102 11.978 11.978 0 01-.14-.77c-.211-1.397-.284-3.232-.216-5.414.135-4.354.821-9.849 1.893-15.498 1.071-5.644 2.515-11.378 4.142-16.207 1.655-4.913 3.413-8.617 5.002-10.438l1.556-1.781-2.016-1.238c-5.134-3.154-9.801-3.879-14.134-2.595l-.495.147-.362.368c-2.391 2.429-4.37 5.957-5.985 9.977-1.625 4.047-2.936 8.73-3.922 13.59-1.97 9.701-2.69 20.309-1.954 28.295l.006.063.01.063c.177 1.134.355 1.942.634 2.674.25.655.563 1.194.878 1.737l.093.16.078.134.097.121c1.606 1.987 3.375 3.384 5.579 4.239 2.16.837 4.594 1.097 7.433 1.062l.024-.001h.023c3.186-.116 6.314-2.367 9.039-5.304 2.81-3.029 5.555-7.179 7.954-11.885zm131.894-48.058c.423-.54.828-1.03 1.21-1.464a39.014 39.014 0 01-2.066 5.176c-2.394 4.733-6.042 9.693-9.201 13.989l-.757 1.03a114.478 114.478 0 013.585-7.315c2.476-4.624 5.032-8.615 7.229-11.416z" fill="#000" stroke="#fff" stroke-width="4"/><path d="M349.52 44.057l1.036 2.39 2.042-1.618c4.76-3.775 9.539-7.55 14.318-11.325h.001l.002-.002c4.779-3.775 9.56-7.552 14.324-11.328l1.092-.866-.435-1.325c-.716-2.184-1.45-4.366-2.18-6.541l-.001-.004a974.908 974.908 0 01-2.173-6.517l-.994-3.029-2.295 2.212c-9.453 9.114-16.549 16.128-20.812 21.914-4.248 5.765-6.139 10.93-3.925 16.039z" fill="#000" stroke="#fff" stroke-width="4"/><path d="M269.666 151.161v-2h-14.629v-29.866h-14.138v42.506h28.767v-10.64zm2.668 8.64v2h14.138v-42.506h-14.138v40.506zm37.45-21.84c-.143.443-.3.942-.464 1.48a73.116 73.116 0 00-.418-1.395l-.002-.006-5.512-17.417-.442-1.396h-15.125l.96 2.675 13.812 38.506.475 1.325h11.78l.484-1.304 14.288-38.507 1-2.695h-14.811l-.446 1.387-5.578 17.345-.001.002zm48.715 11.2h-12.696v-3.143h13.54v-12.096h-13.54v-1.987h14.084v-12.64h-28.154v42.506h28.766v-12.64h-2z" fill="#D60B52" stroke="#fff" stroke-width="4"/></svg>