<svg width="21" height="21" viewBox="0 0 21 21" fill="none" xmlns="http://www.w3.org/2000/svg">
<path d="M20.1713 14.8877H6.23141L6.93133 13.3023L18.5608 13.2789C18.9541 13.2789 19.2912 12.9665 19.3614 12.5344L20.9719 2.50948C21.014 2.24656 20.9508 1.97583 20.7963 1.77017C20.72 1.66896 20.6247 1.58743 20.5172 1.53125C20.4097 1.47506 20.2925 1.44555 20.1737 1.44478L5.37933 1.39011L5.25293 0.728896C5.17334 0.307177 4.83157 0 4.44298 0H0.826329C0.607173 0 0.396993 0.0968153 0.242026 0.269148C0.0870594 0.441481 0 0.675214 0 0.918929C0 1.16264 0.0870594 1.39638 0.242026 1.56871C0.396993 1.74104 0.607173 1.83786 0.826329 1.83786H3.77349L4.32594 4.75865L5.68599 12.0814L3.93501 15.2599C3.84408 15.3964 3.78931 15.5585 3.7769 15.7278C3.76449 15.8971 3.79493 16.0669 3.86479 16.2179C4.00524 16.5277 4.28849 16.7229 4.60216 16.7229H6.07223C5.75883 17.1859 5.58955 17.7497 5.59001 18.3291C5.59001 19.8025 6.66681 21 7.99175 21C9.31669 21 10.3935 19.8025 10.3935 18.3291C10.3935 17.7486 10.2203 17.1837 9.91127 16.7229H13.6824C13.369 17.1859 13.1997 17.7497 13.2002 18.3291C13.2002 19.8025 14.277 21 15.6019 21C16.9269 21 18.0037 19.8025 18.0037 18.3291C18.0037 17.7486 17.8305 17.1837 17.5215 16.7229H20.1737C20.6278 16.7229 21 16.3116 21 15.804C20.9986 15.5606 20.9107 15.3276 20.7555 15.1559C20.6003 14.9842 20.3903 14.8878 20.1713 14.8877ZM5.72344 3.20193L19.2022 3.25139L17.882 11.4723L7.29417 11.4931L5.72344 3.20193ZM7.99175 19.1517C7.58444 19.1517 7.25203 18.7821 7.25203 18.3291C7.25203 17.8762 7.58444 17.5065 7.99175 17.5065C8.39906 17.5065 8.73147 17.8762 8.73147 18.3291C8.73147 18.5473 8.65353 18.7565 8.51481 18.9108C8.37609 19.0651 8.18794 19.1517 7.99175 19.1517ZM15.6019 19.1517C15.1946 19.1517 14.8622 18.7821 14.8622 18.3291C14.8622 17.8762 15.1946 17.5065 15.6019 17.5065C16.0093 17.5065 16.3417 17.8762 16.3417 18.3291C16.3417 18.5473 16.2637 18.7565 16.125 18.9108C15.9863 19.0651 15.7981 19.1517 15.6019 19.1517Z" fill="#343967"/>
</svg>
