<svg width="100" height="18" viewBox="0 0 100 18" fill="none" xmlns="http://www.w3.org/2000/svg">
<path d="M4 2C4 3.1 3.1 4 2 4C0.9 4 0 3.1 0 2C0 0.9 0.9 0 2 0C3.1 0 4 0.9 4 2Z" fill="#162345"/>
<path d="M15.6 4C16.7045 4 17.6 3.10457 17.6 2C17.6 0.89543 16.7045 0 15.6 0C14.4954 0 13.6 0.89543 13.6 2C13.6 3.10457 14.4954 4 15.6 4Z" fill="#162345"/>
<path d="M31.3 2C31.3 3.1 30.4 4 29.3 4C28.2 4 27.3 3.1 27.3 2C27.3 0.9 28.2 0 29.3 0C30.4 0 31.3 0.9 31.3 2Z" fill="#162345"/>
<path d="M44.9 2C44.9 3.1 44 4 42.9 4C41.8 4 40.9 3.1 40.9 2C40.9 0.9 41.8 0 42.9 0C44 0 44.9 0.9 44.9 2Z" fill="#162345"/>
<path d="M56.5 4C57.6046 4 58.5 3.10457 58.5 2C58.5 0.89543 57.6046 0 56.5 0C55.3954 0 54.5 0.89543 54.5 2C54.5 3.10457 55.3954 4 56.5 4Z" fill="#162345"/>
<path d="M72.1 2C72.1 3.1 71.2 4 70.1 4C69 4 68.1 3.1 68.1 2C68.1 0.9 69 0 70.1 0C71.2 0 72.1 0.9 72.1 2Z" fill="#162345"/>
<path d="M85.8 2C85.8 3.1 84.9 4 83.8 4C82.7 4 81.8 3.1 81.8 2C81.8 0.9 82.7 0 83.8 0C84.9 0 85.8 0.9 85.8 2Z" fill="#162345"/>
<path d="M17.6 15.6001C17.6 16.7001 16.7 17.6001 15.6 17.6001C14.5 17.6001 13.6 16.7001 13.6 15.6001C13.6 14.5001 14.5 13.6001 15.6 13.6001C16.7 13.6001 17.6 14.5001 17.6 15.6001Z" fill="#162345"/>
<path d="M31.3 15.6001C31.3 16.7001 30.4 17.6001 29.3 17.6001C28.2 17.6001 27.3 16.7001 27.3 15.6001C27.3 14.5001 28.2 13.6001 29.3 13.6001C30.4 13.6001 31.3 14.5001 31.3 15.6001Z" fill="#162345"/>
<path d="M44.9 15.6001C44.9 16.7001 44 17.6001 42.9 17.6001C41.8 17.6001 40.9 16.7001 40.9 15.6001C40.9 14.5001 41.8 13.6001 42.9 13.6001C44 13.6001 44.9 14.5001 44.9 15.6001Z" fill="#162345"/>
<path d="M58.5 15.6001C58.5 16.7001 57.6 17.6001 56.5 17.6001C55.4 17.6001 54.5 16.7001 54.5 15.6001C54.5 14.5001 55.4 13.6001 56.5 13.6001C57.6 13.6001 58.5 14.5001 58.5 15.6001Z" fill="#162345"/>
<path d="M72.1 15.6001C72.1 16.7001 71.2 17.6001 70.1 17.6001C69 17.6001 68.1 16.7001 68.1 15.6001C68.1 14.5001 69 13.6001 70.1 13.6001C71.2 13.6001 72.1 14.5001 72.1 15.6001Z" fill="#162345"/>
<path d="M85.8 15.6001C85.8 16.7001 84.9 17.6001 83.8 17.6001C82.7 17.6001 81.8 16.7001 81.8 15.6001C81.8 14.5001 82.7 13.6001 83.8 13.6001C84.9 13.6001 85.8 14.5001 85.8 15.6001Z" fill="#162345"/>
<path d="M99.4 15.6001C99.4 16.7001 98.5 17.6001 97.4 17.6001C96.3 17.6001 95.4 16.7001 95.4 15.6001C95.4 14.5001 96.3 13.6001 97.4 13.6001C98.5 13.6001 99.4 14.5001 99.4 15.6001Z" fill="#162345"/>
</svg>
